<svg width="1440" height="238" viewBox="0 0 1440 238" fill="none" xmlns="http://www.w3.org/2000/svg">
<path fill-rule="evenodd" clip-rule="evenodd" d="M1440 96.6973V238.484H0V33.335L5.04166 32.173C6.45693 31.8686 7.90299 31.557 9.37917 31.239C75.7444 16.9414 202.997 -10.4737 330.25 4.19069C407.597 12.5098 484.944 36.3749 562.291 60.24C615.027 76.5117 667.764 92.7834 720.5 104.128C850.583 133.109 980.667 133.109 1110.75 126.114C1227.58 119.831 1344.41 107.099 1414.12 99.5023C1422.03 98.6405 1429.33 97.8447 1435.96 97.132L1440 96.6973Z" fill="url(#paint0_linear)"/>
<path d="M1061.18 32.5573C882.246 88.6144 763.285 168.047 662.5 237.5H1439.5V11.1137C1313.35 -8.39217 1191.35 -2.81477 1061.18 32.5573Z" fill="url(#paint1_linear)"/>
<defs>
<linearGradient id="paint0_linear" x1="2.42792e-05" y1="142.291" x2="1531.67" y2="142.291" gradientUnits="userSpaceOnUse">
<stop stop-color="#FFD770"/>
<stop offset="1" stop-color="#FFA740"/>
</linearGradient>
<linearGradient id="paint1_linear" x1="662.5" y1="141.704" x2="1488.96" y2="141.704" gradientUnits="userSpaceOnUse">
<stop stop-color="#FFD770"/>
<stop offset="1" stop-color="#FFA740"/>
</linearGradient>
</defs>
</svg>
