<svg width="536" height="224" viewBox="0 0 536 224" fill="none" xmlns="http://www.w3.org/2000/svg">
<g filter="url(#filter0_i)">
<path fill-rule="evenodd" clip-rule="evenodd" d="M145.312 132.48V2.88H111.338L0 139.359V166.624H108.864V220.48H145.312V166.624H173.248V132.48H145.312ZM48.9661 132.48L108.864 58.5244V132.48H48.9661ZM231.19 214.911L231.273 214.956L231.358 214.999C242.33 220.593 254.239 223.36 266.959 223.36C279.679 223.36 291.517 220.593 302.33 214.97L302.356 214.956L302.382 214.942C313.219 209.205 322.453 201.339 330.046 191.425L330.071 191.392L330.095 191.36C337.644 181.294 343.409 169.482 347.479 156.048L347.484 156.032L347.489 156.016C351.577 142.321 353.583 127.524 353.583 111.68C353.583 95.8463 351.58 81.1398 347.486 67.6212C343.422 54.0102 337.657 42.1686 330.071 32.2561C322.487 22.1531 313.241 14.257 302.357 8.6918C291.546 2.87195 279.697 0 266.959 0C254.21 0 242.351 2.87703 231.533 8.70724C220.848 14.2741 211.634 22.1546 203.887 32.2039L203.88 32.2137L203.872 32.2234C196.276 42.141 190.503 53.9917 186.434 67.6151C182.339 81.1354 180.335 95.8439 180.335 111.68C180.335 127.524 182.341 142.321 186.43 156.016L186.434 156.032L186.439 156.048C190.51 169.482 196.274 181.294 203.823 191.36L203.848 191.392L203.872 191.425C211.442 201.307 220.554 209.168 231.19 214.911ZM316.559 111.68C316.559 136.38 311.484 155.287 302.101 169.106L302.088 169.124C293.101 182.44 281.587 188.64 266.959 188.64C252.555 188.64 241.007 182.463 231.803 169.084C222.429 155.267 217.359 136.367 217.359 111.68C217.359 86.9726 222.437 68.1869 231.792 54.5802L231.805 54.5612L231.818 54.542C241.043 40.9557 252.593 34.72 266.959 34.72C281.325 34.72 292.876 40.9557 302.101 54.542L302.114 54.5612L302.127 54.5802C311.482 68.1869 316.559 86.9726 316.559 111.68ZM507.708 132.48V2.88H473.734L362.396 139.359V166.624H471.26V220.48H507.708V166.624H535.644V132.48H507.708ZM411.362 132.48L471.26 58.5244V132.48H411.362Z" fill="#253652"/>
</g>
<defs>
<filter id="filter0_i" x="0" y="0" width="535.644" height="227.36" filterUnits="userSpaceOnUse" color-interpolation-filters="sRGB">
<feFlood flood-opacity="0" result="BackgroundImageFix"/>
<feBlend mode="normal" in="SourceGraphic" in2="BackgroundImageFix" result="shape"/>
<feColorMatrix in="SourceAlpha" type="matrix" values="0 0 0 0 0 0 0 0 0 0 0 0 0 0 0 0 0 0 127 0" result="hardAlpha"/>
<feOffset dy="4"/>
<feGaussianBlur stdDeviation="2"/>
<feComposite in2="hardAlpha" operator="arithmetic" k2="-1" k3="1"/>
<feColorMatrix type="matrix" values="0 0 0 0 0 0 0 0 0 0 0 0 0 0 0 0 0 0 0.25 0"/>
<feBlend mode="normal" in2="shape" result="effect1_innerShadow"/>
</filter>
</defs>
</svg>
