<svg width="921" height="383" viewBox="0 0 921 383" fill="none" xmlns="http://www.w3.org/2000/svg">
<g filter="url(#filter0_di)">
<path d="M124 233C125.625 224.75 119.25 218.562 104.875 214.438L91.5625 211.062C69.8125 205.312 53.875 197.25 43.75 186.875C33.625 176.5 28.875 164.188 29.5 149.938C30.125 130.438 38.75 114.625 55.375 102.5C72.125 90.25 92.5 84.25 116.5 84.5C140.375 84.75 159.688 90.8125 174.438 102.688C189.312 114.562 196.875 130.562 197.125 150.688L135.625 150.5C136.125 134.5 129.062 126.5 114.438 126.5C108.188 126.5 102.375 128.375 97 132.125C91.625 135.75 88.4375 140.625 87.4375 146.75C85.3125 156.875 94.25 163.812 114.25 167.562C131.625 171.688 145.062 176.5 154.562 182C164.062 187.375 171.312 194.062 176.312 202.062C181.312 210.062 183.625 219.688 183.25 230.938C182.875 243.188 178.875 254.125 171.25 263.75C163.625 273.375 152.562 281.062 138.062 286.812C123.688 292.562 108.062 295.25 91.1875 294.875C76.5625 294.75 62.9375 291.688 50.3125 285.688C37.8125 279.688 28 271.562 20.875 261.312C13.875 250.938 10.25 239.062 10 225.688L67.375 226.062C67.625 244.062 76.625 252.938 94.375 252.688C102 252.688 108.5 251 113.875 247.625C119.25 244.125 122.625 239.25 124 233ZM402.812 189.875C400.188 211.125 394.625 230.062 386.125 246.688C377.625 263.188 367.062 275.5 354.438 283.625C341.938 291.625 327.938 295.438 312.438 295.062C294.688 294.562 280.312 287.562 269.312 274.062L250.938 369.125H189.25L238 88.25L295 88.0625L291.812 107.375C305.438 91.625 321.5 84 340 84.5C359.75 84.75 375.125 91.8125 386.125 105.688C397.25 119.562 403.188 138.5 403.938 162.5C404.188 170.25 403.812 179.375 402.812 189.875ZM342.812 164.75C342.188 144.125 335.188 133.625 321.812 133.25C308.812 132.5 298 137.812 289.375 149.188L274.938 229.625C278.812 240.5 287.438 246.062 300.812 246.312C322.688 246.688 336.125 227.875 341.125 189.875C342.25 177.875 342.812 169.5 342.812 164.75ZM478.938 291.125H417.062L452.312 88.25H514.188L478.938 291.125ZM457.75 37.0625C457.5 27.9375 460.688 20.3125 467.312 14.1875C474.062 8.0625 482.188 5 491.688 5C501.312 5 509.312 7.75 515.688 13.25C522.188 18.75 525.562 25.9375 525.812 34.8125C526.062 44.0625 522.875 51.75 516.25 57.875C509.625 63.875 501.5 66.875 491.875 66.875C482.5 66.875 474.5 64.1875 467.875 58.8125C461.375 53.3125 458 46.0625 457.75 37.0625ZM612.062 246.312C620.938 246.562 627.875 244.125 632.875 239C637.875 233.75 641.062 227 642.438 218.75L700.188 218.562C699.438 233.438 695 246.75 686.875 258.5C678.875 270.25 668 279.375 654.25 285.875C640.625 292.25 626 295.25 610.375 294.875C583.375 294.375 562.562 284.688 547.938 265.812C533.312 246.812 527.375 222.312 530.125 192.312L530.688 187.812C532.938 167.312 538.688 149.188 547.938 133.438C557.188 117.562 569.312 105.312 584.312 96.6875C599.438 88.0625 616.312 84 634.938 84.5C658.562 85 677.188 92.5625 690.812 107.188C704.562 121.688 711.188 141.312 710.688 166.062L652.938 165.875C653.562 144.375 645.875 133.438 629.875 133.062C608.125 132.312 595.625 150.625 592.375 188L590.688 207.125L590.5 214.25C590.5 235.25 597.688 245.938 612.062 246.312ZM814.375 294.875C796.25 294.75 780.062 290.5 765.812 282.125C751.688 273.625 741 261.875 733.75 246.875C726.5 231.75 723.625 215.125 725.125 197L725.688 191.75C729.062 158.375 740.625 132 760.375 112.625C780.25 93.125 804.562 83.75 833.312 84.5C850.688 84.75 865.562 89.1875 877.938 97.8125C890.312 106.312 899.375 118.125 905.125 133.25C910.875 148.25 912.75 165.125 910.75 183.875L907.188 209.562H786.438C786.688 220.188 789.688 228.812 795.438 235.438C801.188 242.062 809.562 245.562 820.562 245.938C838.438 246.438 854.5 239.562 868.75 225.312L894.625 259.625C887 270.5 876.312 279.062 862.562 285.312C848.938 291.438 834 294.625 817.75 294.875H814.375ZM829.375 133.062C820.625 132.812 813 135.562 806.5 141.312C800.125 147.062 794.562 156.688 789.812 170.188H851.5L852.625 164.75C853.375 160.375 853.5 156.25 853 152.375C850.875 139.875 843 133.438 829.375 133.062Z" fill="url(#paint0_linear)"/>
<path d="M124 233C125.625 224.75 119.25 218.562 104.875 214.438L91.5625 211.062C69.8125 205.312 53.875 197.25 43.75 186.875C33.625 176.5 28.875 164.188 29.5 149.938C30.125 130.438 38.75 114.625 55.375 102.5C72.125 90.25 92.5 84.25 116.5 84.5C140.375 84.75 159.688 90.8125 174.438 102.688C189.312 114.562 196.875 130.562 197.125 150.688L135.625 150.5C136.125 134.5 129.062 126.5 114.438 126.5C108.188 126.5 102.375 128.375 97 132.125C91.625 135.75 88.4375 140.625 87.4375 146.75C85.3125 156.875 94.25 163.812 114.25 167.562C131.625 171.688 145.062 176.5 154.562 182C164.062 187.375 171.312 194.062 176.312 202.062C181.312 210.062 183.625 219.688 183.25 230.938C182.875 243.188 178.875 254.125 171.25 263.75C163.625 273.375 152.562 281.062 138.062 286.812C123.688 292.562 108.062 295.25 91.1875 294.875C76.5625 294.75 62.9375 291.688 50.3125 285.688C37.8125 279.688 28 271.562 20.875 261.312C13.875 250.938 10.25 239.062 10 225.688L67.375 226.062C67.625 244.062 76.625 252.938 94.375 252.688C102 252.688 108.5 251 113.875 247.625C119.25 244.125 122.625 239.25 124 233ZM402.812 189.875C400.188 211.125 394.625 230.062 386.125 246.688C377.625 263.188 367.062 275.5 354.438 283.625C341.938 291.625 327.938 295.438 312.438 295.062C294.688 294.562 280.312 287.562 269.312 274.062L250.938 369.125H189.25L238 88.25L295 88.0625L291.812 107.375C305.438 91.625 321.5 84 340 84.5C359.75 84.75 375.125 91.8125 386.125 105.688C397.25 119.562 403.188 138.5 403.938 162.5C404.188 170.25 403.812 179.375 402.812 189.875ZM342.812 164.75C342.188 144.125 335.188 133.625 321.812 133.25C308.812 132.5 298 137.812 289.375 149.188L274.938 229.625C278.812 240.5 287.438 246.062 300.812 246.312C322.688 246.688 336.125 227.875 341.125 189.875C342.25 177.875 342.812 169.5 342.812 164.75ZM478.938 291.125H417.062L452.312 88.25H514.188L478.938 291.125ZM457.75 37.0625C457.5 27.9375 460.688 20.3125 467.312 14.1875C474.062 8.0625 482.188 5 491.688 5C501.312 5 509.312 7.75 515.688 13.25C522.188 18.75 525.562 25.9375 525.812 34.8125C526.062 44.0625 522.875 51.75 516.25 57.875C509.625 63.875 501.5 66.875 491.875 66.875C482.5 66.875 474.5 64.1875 467.875 58.8125C461.375 53.3125 458 46.0625 457.75 37.0625ZM612.062 246.312C620.938 246.562 627.875 244.125 632.875 239C637.875 233.75 641.062 227 642.438 218.75L700.188 218.562C699.438 233.438 695 246.75 686.875 258.5C678.875 270.25 668 279.375 654.25 285.875C640.625 292.25 626 295.25 610.375 294.875C583.375 294.375 562.562 284.688 547.938 265.812C533.312 246.812 527.375 222.312 530.125 192.312L530.688 187.812C532.938 167.312 538.688 149.188 547.938 133.438C557.188 117.562 569.312 105.312 584.312 96.6875C599.438 88.0625 616.312 84 634.938 84.5C658.562 85 677.188 92.5625 690.812 107.188C704.562 121.688 711.188 141.312 710.688 166.062L652.938 165.875C653.562 144.375 645.875 133.438 629.875 133.062C608.125 132.312 595.625 150.625 592.375 188L590.688 207.125L590.5 214.25C590.5 235.25 597.688 245.938 612.062 246.312ZM814.375 294.875C796.25 294.75 780.062 290.5 765.812 282.125C751.688 273.625 741 261.875 733.75 246.875C726.5 231.75 723.625 215.125 725.125 197L725.688 191.75C729.062 158.375 740.625 132 760.375 112.625C780.25 93.125 804.562 83.75 833.312 84.5C850.688 84.75 865.562 89.1875 877.938 97.8125C890.312 106.312 899.375 118.125 905.125 133.25C910.875 148.25 912.75 165.125 910.75 183.875L907.188 209.562H786.438C786.688 220.188 789.688 228.812 795.438 235.438C801.188 242.062 809.562 245.562 820.562 245.938C838.438 246.438 854.5 239.562 868.75 225.312L894.625 259.625C887 270.5 876.312 279.062 862.562 285.312C848.938 291.438 834 294.625 817.75 294.875H814.375ZM829.375 133.062C820.625 132.812 813 135.562 806.5 141.312C800.125 147.062 794.562 156.688 789.812 170.188H851.5L852.625 164.75C853.375 160.375 853.5 156.25 853 152.375C850.875 139.875 843 133.438 829.375 133.062Z" stroke="white" stroke-width="10"/>
</g>
<defs>
<filter id="filter0_di" x="0.905045" y="-5" width="919.619" height="387.125" filterUnits="userSpaceOnUse" color-interpolation-filters="sRGB">
<feFlood flood-opacity="0" result="BackgroundImageFix"/>
<feColorMatrix in="SourceAlpha" type="matrix" values="0 0 0 0 0 0 0 0 0 0 0 0 0 0 0 0 0 0 127 0"/>
<feOffset dy="4"/>
<feGaussianBlur stdDeviation="2"/>
<feColorMatrix type="matrix" values="0 0 0 0 0 0 0 0 0 0 0 0 0 0 0 0 0 0 0.25 0"/>
<feBlend mode="normal" in2="BackgroundImageFix" result="effect1_dropShadow"/>
<feBlend mode="normal" in="SourceGraphic" in2="effect1_dropShadow" result="shape"/>
<feColorMatrix in="SourceAlpha" type="matrix" values="0 0 0 0 0 0 0 0 0 0 0 0 0 0 0 0 0 0 127 0" result="hardAlpha"/>
<feOffset dy="-5"/>
<feGaussianBlur stdDeviation="4"/>
<feComposite in2="hardAlpha" operator="arithmetic" k2="-1" k3="1"/>
<feColorMatrix type="matrix" values="0 0 0 0 0 0 0 0 0 0 0 0 0 0 0 0 0 0 0.25 0"/>
<feBlend mode="normal" in2="shape" result="effect2_innerShadow"/>
</filter>
<linearGradient id="paint0_linear" x1="69.875" y1="388.625" x2="991.375" y2="82.625" gradientUnits="userSpaceOnUse">
<stop offset="0.103309" stop-color="#6720FF"/>
<stop offset="0.873124" stop-color="#E8077E"/>
</linearGradient>
</defs>
</svg>
