<svg width="771" height="103" viewBox="0 0 771 103" fill="none" xmlns="http://www.w3.org/2000/svg">
<g filter="url(#filter0_b)">
<path d="M30.8703 19.0078L39.7766 1.875H44.8859L33.1203 23.2734V36H28.6203V23.2734L16.8547 1.875H22.0109L30.8703 19.0078ZM44.9572 23.0859C44.9572 20.6016 45.4416 18.3672 46.4103 16.3828C47.3947 14.3984 48.7541 12.8672 50.4884 11.7891C52.2384 10.7109 54.2306 10.1719 56.465 10.1719C59.9181 10.1719 62.7072 11.3672 64.8322 13.7578C66.9728 16.1484 68.0431 19.3281 68.0431 23.2969V23.6016C68.0431 26.0703 67.5666 28.2891 66.6134 30.2578C65.6759 32.2109 64.3244 33.7344 62.5587 34.8281C60.8087 35.9219 58.7931 36.4688 56.5119 36.4688C53.0744 36.4688 50.2853 35.2734 48.1447 32.8828C46.0197 30.4922 44.9572 27.3281 44.9572 23.3906V23.0859ZM49.3166 23.6016C49.3166 26.4141 49.965 28.6719 51.2619 30.375C52.5744 32.0781 54.3244 32.9297 56.5119 32.9297C58.715 32.9297 60.465 32.0703 61.7619 30.3516C63.0587 28.6172 63.7072 26.1953 63.7072 23.0859C63.7072 20.3047 63.0431 18.0547 61.715 16.3359C60.4025 14.6016 58.6525 13.7344 56.465 13.7344C54.3244 13.7344 52.5978 14.5859 51.2853 16.2891C49.9728 17.9922 49.3166 20.4297 49.3166 23.6016ZM88.1769 33.4922C86.4894 35.4766 84.0128 36.4688 80.7472 36.4688C78.0441 36.4688 75.9816 35.6875 74.5597 34.125C73.1534 32.5469 72.4425 30.2188 72.4269 27.1406V10.6406H76.7628V27.0234C76.7628 30.8672 78.3253 32.7891 81.4503 32.7891C84.7628 32.7891 86.9659 31.5547 88.0597 29.0859V10.6406H92.3956V36H88.2706L88.1769 33.4922ZM98.3497 11.4844L95.8887 9.79688C97.3419 7.76562 98.0919 5.625 98.1387 3.375V0H102.428V3.04688C102.412 4.60938 102.022 6.17187 101.256 7.73438C100.506 9.28125 99.5372 10.5312 98.3497 11.4844ZM115.062 30.1172L121.343 10.6406H125.772L116.679 36H113.374L104.187 10.6406H108.616L115.062 30.1172ZM139.18 36.4688C135.742 36.4688 132.945 35.3438 130.789 33.0938C128.633 30.8281 127.555 27.8047 127.555 24.0234V23.2266C127.555 20.7109 128.031 18.4688 128.984 16.5C129.953 14.5156 131.297 12.9688 133.016 11.8594C134.75 10.7344 136.625 10.1719 138.641 10.1719C141.938 10.1719 144.5 11.2578 146.328 13.4297C148.156 15.6016 149.07 18.7109 149.07 22.7578V24.5625H131.891C131.953 27.0625 132.68 29.0859 134.07 30.6328C135.477 32.1641 137.258 32.9297 139.414 32.9297C140.945 32.9297 142.242 32.6172 143.305 31.9922C144.367 31.3672 145.297 30.5391 146.094 29.5078L148.742 31.5703C146.617 34.8359 143.43 36.4688 139.18 36.4688ZM138.641 13.7344C136.891 13.7344 135.422 14.375 134.234 15.6562C133.047 16.9219 132.312 18.7031 132.031 21H144.734V20.6719C144.609 18.4688 144.016 16.7656 142.953 15.5625C141.891 14.3438 140.453 13.7344 138.641 13.7344ZM174.619 36.4688C171.182 36.4688 168.385 35.3438 166.228 33.0938C164.072 30.8281 162.994 27.8047 162.994 24.0234V23.2266C162.994 20.7109 163.471 18.4688 164.424 16.5C165.392 14.5156 166.736 12.9688 168.455 11.8594C170.189 10.7344 172.064 10.1719 174.08 10.1719C177.377 10.1719 179.939 11.2578 181.767 13.4297C183.596 15.6016 184.51 18.7109 184.51 22.7578V24.5625H167.33C167.392 27.0625 168.119 29.0859 169.51 30.6328C170.916 32.1641 172.697 32.9297 174.853 32.9297C176.385 32.9297 177.682 32.6172 178.744 31.9922C179.807 31.3672 180.736 30.5391 181.533 29.5078L184.182 31.5703C182.057 34.8359 178.869 36.4688 174.619 36.4688ZM174.08 13.7344C172.33 13.7344 170.861 14.375 169.674 15.6562C168.486 16.9219 167.752 18.7031 167.471 21H180.174V20.6719C180.049 18.4688 179.455 16.7656 178.392 15.5625C177.33 14.3438 175.892 13.7344 174.08 13.7344ZM192.69 10.6406L192.831 13.8281C194.768 11.3906 197.3 10.1719 200.425 10.1719C205.784 10.1719 208.487 13.1953 208.534 19.2422V36H204.198V19.2188C204.182 17.3906 203.761 16.0391 202.932 15.1641C202.12 14.2891 200.847 13.8516 199.112 13.8516C197.706 13.8516 196.472 14.2266 195.409 14.9766C194.347 15.7266 193.518 16.7109 192.925 17.9297V36H188.589V10.6406H192.69ZM224.285 32.9297C225.832 32.9297 227.183 32.4609 228.34 31.5234C229.496 30.5859 230.137 29.4141 230.262 28.0078H234.363C234.285 29.4609 233.785 30.8438 232.863 32.1562C231.941 33.4688 230.707 34.5156 229.16 35.2969C227.629 36.0781 226.004 36.4688 224.285 36.4688C220.832 36.4688 218.082 35.3203 216.035 33.0234C214.004 30.7109 212.988 27.5547 212.988 23.5547V22.8281C212.988 20.3594 213.441 18.1641 214.347 16.2422C215.254 14.3203 216.551 12.8281 218.238 11.7656C219.941 10.7031 221.949 10.1719 224.262 10.1719C227.105 10.1719 229.465 11.0234 231.34 12.7266C233.23 14.4297 234.238 16.6406 234.363 19.3594H230.262C230.137 17.7188 229.512 16.375 228.387 15.3281C227.277 14.2656 225.902 13.7344 224.262 13.7344C222.058 13.7344 220.347 14.5312 219.129 16.125C217.926 17.7031 217.324 19.9922 217.324 22.9922V23.8125C217.324 26.7344 217.926 28.9844 219.129 30.5625C220.332 32.1406 222.051 32.9297 224.285 32.9297ZM237.13 23.0859C237.13 20.6016 237.614 18.3672 238.583 16.3828C239.567 14.3984 240.927 12.8672 242.661 11.7891C244.411 10.7109 246.403 10.1719 248.637 10.1719C252.091 10.1719 254.88 11.3672 257.005 13.7578C259.145 16.1484 260.216 19.3281 260.216 23.2969V23.6016C260.216 26.0703 259.739 28.2891 258.786 30.2578C257.848 32.2109 256.497 33.7344 254.731 34.8281C252.981 35.9219 250.966 36.4688 248.684 36.4688C245.247 36.4688 242.458 35.2734 240.317 32.8828C238.192 30.4922 237.13 27.3281 237.13 23.3906V23.0859ZM241.489 23.6016C241.489 26.4141 242.137 28.6719 243.434 30.375C244.747 32.0781 246.497 32.9297 248.684 32.9297C250.887 32.9297 252.637 32.0703 253.934 30.3516C255.231 28.6172 255.88 26.1953 255.88 23.0859C255.88 20.3047 255.216 18.0547 253.887 16.3359C252.575 14.6016 250.825 13.7344 248.637 13.7344C246.497 13.7344 244.77 14.5859 243.458 16.2891C242.145 17.9922 241.489 20.4297 241.489 23.6016ZM280.349 33.4922C278.662 35.4766 276.185 36.4688 272.92 36.4688C270.217 36.4688 268.154 35.6875 266.732 34.125C265.326 32.5469 264.615 30.2188 264.599 27.1406V10.6406H268.935V27.0234C268.935 30.8672 270.498 32.7891 273.623 32.7891C276.935 32.7891 279.138 31.5547 280.232 29.0859V10.6406H284.568V36H280.443L280.349 33.4922ZM294.319 10.6406L294.46 13.8281C296.397 11.3906 298.928 10.1719 302.053 10.1719C307.413 10.1719 310.116 13.1953 310.163 19.2422V36H305.827V19.2188C305.811 17.3906 305.389 16.0391 304.561 15.1641C303.749 14.2891 302.475 13.8516 300.741 13.8516C299.335 13.8516 298.1 14.2266 297.038 14.9766C295.975 15.7266 295.147 16.7109 294.553 17.9297V36H290.218V10.6406H294.319ZM321.625 4.5V10.6406H326.359V13.9922H321.625V29.7188C321.625 30.7344 321.836 31.5 322.257 32.0156C322.679 32.5156 323.398 32.7656 324.414 32.7656C324.914 32.7656 325.601 32.6719 326.476 32.4844V36C325.336 36.3125 324.226 36.4688 323.148 36.4688C321.211 36.4688 319.75 35.8828 318.765 34.7109C317.781 33.5391 317.289 31.875 317.289 29.7188V13.9922H312.672V10.6406H317.289V4.5H321.625ZM341.008 36.4688C337.571 36.4688 334.774 35.3438 332.618 33.0938C330.462 30.8281 329.383 27.8047 329.383 24.0234V23.2266C329.383 20.7109 329.86 18.4688 330.813 16.5C331.782 14.5156 333.126 12.9688 334.844 11.8594C336.579 10.7344 338.454 10.1719 340.469 10.1719C343.766 10.1719 346.329 11.2578 348.157 13.4297C349.985 15.6016 350.899 18.7109 350.899 22.7578V24.5625H333.719C333.782 27.0625 334.508 29.0859 335.899 30.6328C337.305 32.1641 339.087 32.9297 341.243 32.9297C342.774 32.9297 344.071 32.6172 345.133 31.9922C346.196 31.3672 347.126 30.5391 347.922 29.5078L350.571 31.5703C348.446 34.8359 345.258 36.4688 341.008 36.4688ZM340.469 13.7344C338.719 13.7344 337.251 14.375 336.063 15.6562C334.876 16.9219 334.141 18.7031 333.86 21H346.563V20.6719C346.438 18.4688 345.844 16.7656 344.782 15.5625C343.719 14.3438 342.282 13.7344 340.469 13.7344ZM367.236 14.5312C366.58 14.4219 365.869 14.3672 365.103 14.3672C362.259 14.3672 360.33 15.5781 359.314 18V36H354.978V10.6406H359.197L359.267 13.5703C360.689 11.3047 362.705 10.1719 365.314 10.1719C366.158 10.1719 366.798 10.2812 367.236 10.5V14.5312ZM380.338 36.4688C376.901 36.4688 374.104 35.3438 371.948 33.0938C369.792 30.8281 368.713 27.8047 368.713 24.0234V23.2266C368.713 20.7109 369.19 18.4688 370.143 16.5C371.112 14.5156 372.456 12.9688 374.174 11.8594C375.909 10.7344 377.784 10.1719 379.799 10.1719C383.096 10.1719 385.659 11.2578 387.487 13.4297C389.315 15.6016 390.229 18.7109 390.229 22.7578V24.5625H373.049C373.112 27.0625 373.838 29.0859 375.229 30.6328C376.635 32.1641 378.417 32.9297 380.573 32.9297C382.104 32.9297 383.401 32.6172 384.463 31.9922C385.526 31.3672 386.456 30.5391 387.253 29.5078L389.901 31.5703C387.776 34.8359 384.588 36.4688 380.338 36.4688ZM379.799 13.7344C378.049 13.7344 376.581 14.375 375.393 15.6562C374.206 16.9219 373.471 18.7031 373.19 21H385.893V20.6719C385.768 18.4688 385.174 16.7656 384.112 15.5625C383.049 14.3438 381.612 13.7344 379.799 13.7344ZM393.253 23.1094C393.253 19.2188 394.175 16.0938 396.019 13.7344C397.863 11.3594 400.277 10.1719 403.261 10.1719C406.23 10.1719 408.582 11.1875 410.316 13.2188V0H414.652V36H410.667L410.457 33.2812C408.722 35.4062 406.308 36.4688 403.214 36.4688C400.277 36.4688 397.878 35.2656 396.019 32.8594C394.175 30.4531 393.253 27.3125 393.253 23.4375V23.1094ZM397.589 23.6016C397.589 26.4766 398.183 28.7266 399.371 30.3516C400.558 31.9766 402.199 32.7891 404.292 32.7891C407.042 32.7891 409.05 31.5547 410.316 29.0859V17.4375C409.019 15.0469 407.027 13.8516 404.339 13.8516C402.214 13.8516 400.558 14.6719 399.371 16.3125C398.183 17.9531 397.589 20.3828 397.589 23.6016ZM447.044 36C446.794 35.5 446.591 34.6094 446.435 33.3281C444.419 35.4219 442.013 36.4688 439.216 36.4688C436.716 36.4688 434.662 35.7656 433.052 34.3594C431.458 32.9375 430.662 31.1406 430.662 28.9688C430.662 26.3281 431.662 24.2812 433.662 22.8281C435.677 21.3594 438.505 20.625 442.146 20.625H446.365V18.6328C446.365 17.1172 445.912 15.9141 445.005 15.0234C444.099 14.1172 442.763 13.6641 440.997 13.6641C439.451 13.6641 438.154 14.0547 437.107 14.8359C436.06 15.6172 435.537 16.5625 435.537 17.6719H431.177C431.177 16.4062 431.622 15.1875 432.513 14.0156C433.419 12.8281 434.638 11.8906 436.169 11.2031C437.716 10.5156 439.412 10.1719 441.255 10.1719C444.177 10.1719 446.466 10.9062 448.122 12.375C449.779 13.8281 450.638 15.8359 450.701 18.3984V30.0703C450.701 32.3984 450.997 34.25 451.591 35.625V36H447.044ZM439.849 32.6953C441.208 32.6953 442.497 32.3438 443.716 31.6406C444.935 30.9375 445.818 30.0234 446.365 28.8984V23.6953H442.966C437.654 23.6953 434.997 25.25 434.997 28.3594C434.997 29.7188 435.451 30.7812 436.357 31.5469C437.263 32.3125 438.427 32.6953 439.849 32.6953ZM489.937 30.0234L494.812 10.6406H499.148L491.765 36H488.249L482.085 16.7812L476.085 36H472.57L465.21 10.6406H469.523L474.515 29.625L480.421 10.6406H483.913L489.937 30.0234ZM507.328 36H502.992V10.6406H507.328V36ZM502.641 3.91406C502.641 3.21094 502.852 2.61719 503.274 2.13281C503.711 1.64844 504.352 1.40625 505.196 1.40625C506.039 1.40625 506.68 1.64844 507.117 2.13281C507.555 2.61719 507.774 3.21094 507.774 3.91406C507.774 4.61719 507.555 5.20312 507.117 5.67188C506.68 6.14062 506.039 6.375 505.196 6.375C504.352 6.375 503.711 6.14062 503.274 5.67188C502.852 5.20312 502.641 4.61719 502.641 3.91406ZM518.04 36H513.704V0H518.04V36ZM522.987 23.1094C522.987 19.2188 523.908 16.0938 525.752 13.7344C527.596 11.3594 530.01 10.1719 532.994 10.1719C535.963 10.1719 538.315 11.1875 540.049 13.2188V0H544.385V36H540.401L540.19 33.2812C538.455 35.4062 536.041 36.4688 532.948 36.4688C530.01 36.4688 527.612 35.2656 525.752 32.8594C523.908 30.4531 522.987 27.3125 522.987 23.4375V23.1094ZM527.323 23.6016C527.323 26.4766 527.916 28.7266 529.104 30.3516C530.291 31.9766 531.932 32.7891 534.026 32.7891C536.776 32.7891 538.783 31.5547 540.049 29.0859V17.4375C538.752 15.0469 536.76 13.8516 534.073 13.8516C531.948 13.8516 530.291 14.6719 529.104 16.3125C527.916 17.9531 527.323 20.3828 527.323 23.6016ZM578.981 24.5391H583.715V28.0781H578.981V36H574.621V28.0781H559.082V25.5234L574.363 1.875H578.981V24.5391ZM564.004 24.5391H574.621V7.80469L574.106 8.74219L564.004 24.5391ZM608.068 21.4453C608.068 26.5234 607.2 30.2969 605.466 32.7656C603.732 35.2344 601.021 36.4688 597.333 36.4688C593.693 36.4688 590.997 35.2656 589.247 32.8594C587.497 30.4375 586.591 26.8281 586.528 22.0312V16.2422C586.528 11.2266 587.396 7.5 589.13 5.0625C590.864 2.625 593.583 1.40625 597.286 1.40625C600.958 1.40625 603.661 2.58594 605.396 4.94531C607.13 7.28906 608.021 10.9141 608.068 15.8203V21.4453ZM603.732 15.5156C603.732 11.8438 603.216 9.17188 602.185 7.5C601.153 5.8125 599.521 4.96875 597.286 4.96875C595.068 4.96875 593.45 5.80469 592.435 7.47656C591.419 9.14844 590.896 11.7188 590.864 15.1875V22.125C590.864 25.8125 591.396 28.5391 592.458 30.3047C593.536 32.0547 595.161 32.9297 597.333 32.9297C599.474 32.9297 601.06 32.1016 602.091 30.4453C603.138 28.7891 603.685 26.1797 603.732 22.6172V15.5156ZM630.967 24.5391H635.701V28.0781H630.967V36H626.607V28.0781H611.068V25.5234L626.35 1.875H630.967V24.5391ZM615.99 24.5391H626.607V7.80469L626.092 8.74219L615.99 24.5391ZM660.57 36.4688C657.133 36.4688 654.336 35.3438 652.18 33.0938C650.023 30.8281 648.945 27.8047 648.945 24.0234V23.2266C648.945 20.7109 649.422 18.4688 650.375 16.5C651.344 14.5156 652.688 12.9688 654.406 11.8594C656.141 10.7344 658.016 10.1719 660.031 10.1719C663.328 10.1719 665.891 11.2578 667.719 13.4297C669.547 15.6016 670.461 18.7109 670.461 22.7578V24.5625H653.281C653.344 27.0625 654.07 29.0859 655.461 30.6328C656.867 32.1641 658.648 32.9297 660.805 32.9297C662.336 32.9297 663.633 32.6172 664.695 31.9922C665.758 31.3672 666.688 30.5391 667.484 29.5078L670.133 31.5703C668.008 34.8359 664.82 36.4688 660.57 36.4688ZM660.031 13.7344C658.281 13.7344 656.812 14.375 655.625 15.6562C654.438 16.9219 653.703 18.7031 653.422 21H666.125V20.6719C666 18.4688 665.406 16.7656 664.344 15.5625C663.281 14.3438 661.844 13.7344 660.031 13.7344ZM686.798 14.5312C686.142 14.4219 685.431 14.3672 684.665 14.3672C681.821 14.3672 679.892 15.5781 678.876 18V36H674.54V10.6406H678.759L678.829 13.5703C680.251 11.3047 682.267 10.1719 684.876 10.1719C685.72 10.1719 686.36 10.2812 686.798 10.5V14.5312ZM702.103 14.5312C701.447 14.4219 700.736 14.3672 699.971 14.3672C697.127 14.3672 695.197 15.5781 694.182 18V36H689.846V10.6406H694.064L694.135 13.5703C695.557 11.3047 697.572 10.1719 700.182 10.1719C701.025 10.1719 701.666 10.2812 702.103 10.5V14.5312ZM703.534 23.0859C703.534 20.6016 704.018 18.3672 704.987 16.3828C705.972 14.3984 707.331 12.8672 709.065 11.7891C710.815 10.7109 712.807 10.1719 715.042 10.1719C718.495 10.1719 721.284 11.3672 723.409 13.7578C725.55 16.1484 726.62 19.3281 726.62 23.2969V23.6016C726.62 26.0703 726.143 28.2891 725.19 30.2578C724.253 32.2109 722.901 33.7344 721.136 34.8281C719.386 35.9219 717.37 36.4688 715.089 36.4688C711.651 36.4688 708.862 35.2734 706.722 32.8828C704.597 30.4922 703.534 27.3281 703.534 23.3906V23.0859ZM707.893 23.6016C707.893 26.4141 708.542 28.6719 709.839 30.375C711.151 32.0781 712.901 32.9297 715.089 32.9297C717.292 32.9297 719.042 32.0703 720.339 30.3516C721.636 28.6172 722.284 26.1953 722.284 23.0859C722.284 20.3047 721.62 18.0547 720.292 16.3359C718.979 14.6016 717.229 13.7344 715.042 13.7344C712.901 13.7344 711.175 14.5859 709.862 16.2891C708.55 17.9922 707.893 20.4297 707.893 23.6016ZM743.355 14.5312C742.699 14.4219 741.988 14.3672 741.222 14.3672C738.379 14.3672 736.449 15.5781 735.433 18V36H731.097V10.6406H735.316L735.386 13.5703C736.808 11.3047 738.824 10.1719 741.433 10.1719C742.277 10.1719 742.918 10.2812 743.355 10.5V14.5312ZM751.255 26.3672H747.341L747.036 1.875H751.583L751.255 26.3672ZM746.872 33.8203C746.872 33.1172 747.083 32.5312 747.505 32.0625C747.942 31.5781 748.583 31.3359 749.427 31.3359C750.27 31.3359 750.911 31.5781 751.348 32.0625C751.786 32.5312 752.005 33.1172 752.005 33.8203C752.005 34.5234 751.786 35.1094 751.348 35.5781C750.911 36.0312 750.27 36.2578 749.427 36.2578C748.583 36.2578 747.942 36.0312 747.505 35.5781C747.083 35.1094 746.872 34.5234 746.872 33.8203ZM22.6194 83.0938H8.32251L5.11157 92H0.470947L13.5022 57.875H17.4397L30.4944 92H25.8772L22.6194 83.0938ZM9.68188 79.3906H21.2834L15.4709 63.4297L9.68188 79.3906ZM45.7063 70.5312C45.05 70.4219 44.3391 70.3672 43.5735 70.3672C40.7297 70.3672 38.8 71.5781 37.7844 74V92H33.4485V66.6406H37.6672L37.7375 69.5703C39.1594 67.3047 41.175 66.1719 43.7844 66.1719C44.6281 66.1719 45.2688 66.2812 45.7063 66.5V70.5312ZM58.8088 92.4688C55.3713 92.4688 52.5744 91.3438 50.4182 89.0938C48.2619 86.8281 47.1838 83.8047 47.1838 80.0234V79.2266C47.1838 76.7109 47.6603 74.4688 48.6135 72.5C49.5822 70.5156 50.926 68.9688 52.6447 67.8594C54.3791 66.7344 56.2541 66.1719 58.2697 66.1719C61.5666 66.1719 64.1291 67.2578 65.9572 69.4297C67.7853 71.6016 68.6994 74.7109 68.6994 78.7578V80.5625H51.5197C51.5822 83.0625 52.3088 85.0859 53.6994 86.6328C55.1057 88.1641 56.8869 88.9297 59.0432 88.9297C60.5744 88.9297 61.8713 88.6172 62.9338 87.9922C63.9963 87.3672 64.926 86.5391 65.7228 85.5078L68.3713 87.5703C66.2463 90.8359 63.0588 92.4688 58.8088 92.4688ZM58.2697 69.7344C56.5197 69.7344 55.051 70.375 53.8635 71.6562C52.676 72.9219 51.9416 74.7031 51.6603 77H64.3635V76.6719C64.2385 74.4688 63.6447 72.7656 62.5822 71.5625C61.5197 70.3438 60.0822 69.7344 58.2697 69.7344ZM92.0216 85.6484L97.9278 66.6406H102.568L92.3731 95.9141C90.795 100.133 88.2872 102.242 84.8497 102.242L84.0294 102.172L82.4122 101.867V98.3516L83.5841 98.4453C85.0528 98.4453 86.1935 98.1484 87.006 97.5547C87.8341 96.9609 88.5138 95.875 89.045 94.2969L90.006 91.7188L80.9591 66.6406H85.6935L92.0216 85.6484ZM103.976 79.0859C103.976 76.6016 104.46 74.3672 105.429 72.3828C106.413 70.3984 107.773 68.8672 109.507 67.7891C111.257 66.7109 113.249 66.1719 115.483 66.1719C118.937 66.1719 121.726 67.3672 123.851 69.7578C125.991 72.1484 127.062 75.3281 127.062 79.2969V79.6016C127.062 82.0703 126.585 84.2891 125.632 86.2578C124.694 88.2109 123.343 89.7344 121.577 90.8281C119.827 91.9219 117.812 92.4688 115.53 92.4688C112.093 92.4688 109.304 91.2734 107.163 88.8828C105.038 86.4922 103.976 83.3281 103.976 79.3906V79.0859ZM108.335 79.6016C108.335 82.4141 108.983 84.6719 110.28 86.375C111.593 88.0781 113.343 88.9297 115.53 88.9297C117.733 88.9297 119.483 88.0703 120.78 86.3516C122.077 84.6172 122.726 82.1953 122.726 79.0859C122.726 76.3047 122.062 74.0547 120.733 72.3359C119.421 70.6016 117.671 69.7344 115.483 69.7344C113.343 69.7344 111.616 70.5859 110.304 72.2891C108.991 73.9922 108.335 76.4297 108.335 79.6016ZM147.195 89.4922C145.508 91.4766 143.031 92.4688 139.766 92.4688C137.062 92.4688 135 91.6875 133.578 90.125C132.172 88.5469 131.461 86.2188 131.445 83.1406V66.6406H135.781V83.0234C135.781 86.8672 137.344 88.7891 140.469 88.7891C143.781 88.7891 145.984 87.5547 147.078 85.0859V66.6406H151.414V92H147.289L147.195 89.4922ZM180.268 70.5312C179.611 70.4219 178.9 70.3672 178.135 70.3672C175.291 70.3672 173.361 71.5781 172.346 74V92H168.01V66.6406H172.228L172.299 69.5703C173.721 67.3047 175.736 66.1719 178.346 66.1719C179.189 66.1719 179.83 66.2812 180.268 66.5V70.5312ZM193.37 92.4688C189.932 92.4688 187.136 91.3438 184.979 89.0938C182.823 86.8281 181.745 83.8047 181.745 80.0234V79.2266C181.745 76.7109 182.222 74.4688 183.175 72.5C184.143 70.5156 185.487 68.9688 187.206 67.8594C188.94 66.7344 190.815 66.1719 192.831 66.1719C196.128 66.1719 198.69 67.2578 200.518 69.4297C202.347 71.6016 203.261 74.7109 203.261 78.7578V80.5625H186.081C186.143 83.0625 186.87 85.0859 188.261 86.6328C189.667 88.1641 191.448 88.9297 193.604 88.9297C195.136 88.9297 196.432 88.6172 197.495 87.9922C198.557 87.3672 199.487 86.5391 200.284 85.5078L202.932 87.5703C200.807 90.8359 197.62 92.4688 193.37 92.4688ZM192.831 69.7344C191.081 69.7344 189.612 70.375 188.425 71.6562C187.237 72.9219 186.503 74.7031 186.222 77H198.925V76.6719C198.8 74.4688 198.206 72.7656 197.143 71.5625C196.081 70.3438 194.643 69.7344 192.831 69.7344ZM206.285 79.1094C206.285 75.125 207.199 71.9766 209.027 69.6641C210.855 67.3359 213.308 66.1719 216.387 66.1719C219.387 66.1719 221.754 67.1797 223.488 69.1953L223.676 66.6406H227.66V101.75H223.324V89.6562C221.574 91.5312 219.246 92.4688 216.34 92.4688C213.277 92.4688 210.832 91.2812 209.004 88.9062C207.191 86.5156 206.285 83.3516 206.285 79.4141V79.1094ZM210.621 79.6016C210.621 82.5078 211.23 84.7891 212.449 86.4453C213.683 88.1016 215.34 88.9297 217.418 88.9297C219.996 88.9297 221.965 87.7891 223.324 85.5078V73.0859C221.949 70.8516 219.996 69.7344 217.465 69.7344C215.371 69.7344 213.707 70.5703 212.473 72.2422C211.238 73.8984 210.621 76.3516 210.621 79.6016ZM249.317 89.4922C247.63 91.4766 245.153 92.4688 241.888 92.4688C239.184 92.4688 237.122 91.6875 235.7 90.125C234.294 88.5469 233.583 86.2188 233.567 83.1406V66.6406H237.903V83.0234C237.903 86.8672 239.466 88.7891 242.591 88.7891C245.903 88.7891 248.106 87.5547 249.2 85.0859V66.6406H253.536V92H249.411L249.317 89.4922ZM269.709 92.4688C266.271 92.4688 263.474 91.3438 261.318 89.0938C259.162 86.8281 258.084 83.8047 258.084 80.0234V79.2266C258.084 76.7109 258.56 74.4688 259.513 72.5C260.482 70.5156 261.826 68.9688 263.545 67.8594C265.279 66.7344 267.154 66.1719 269.17 66.1719C272.467 66.1719 275.029 67.2578 276.857 69.4297C278.685 71.6016 279.599 74.7109 279.599 78.7578V80.5625H262.42C262.482 83.0625 263.209 85.0859 264.599 86.6328C266.006 88.1641 267.787 88.9297 269.943 88.9297C271.474 88.9297 272.771 88.6172 273.834 87.9922C274.896 87.3672 275.826 86.5391 276.623 85.5078L279.271 87.5703C277.146 90.8359 273.959 92.4688 269.709 92.4688ZM269.17 69.7344C267.42 69.7344 265.951 70.375 264.763 71.6562C263.576 72.9219 262.842 74.7031 262.56 77H275.263V76.6719C275.138 74.4688 274.545 72.7656 273.482 71.5625C272.42 70.3438 270.982 69.7344 269.17 69.7344ZM298.444 85.2734C298.444 84.1016 297.999 83.1953 297.108 82.5547C296.233 81.8984 294.694 81.3359 292.491 80.8672C290.303 80.3984 288.561 79.8359 287.264 79.1797C285.983 78.5234 285.03 77.7422 284.405 76.8359C283.796 75.9297 283.491 74.8516 283.491 73.6016C283.491 71.5234 284.366 69.7656 286.116 68.3281C287.882 66.8906 290.132 66.1719 292.866 66.1719C295.741 66.1719 298.069 66.9141 299.85 68.3984C301.647 69.8828 302.546 71.7812 302.546 74.0938H298.186C298.186 72.9062 297.678 71.8828 296.663 71.0234C295.663 70.1641 294.397 69.7344 292.866 69.7344C291.288 69.7344 290.053 70.0781 289.163 70.7656C288.272 71.4531 287.827 72.3516 287.827 73.4609C287.827 74.5078 288.241 75.2969 289.069 75.8281C289.897 76.3594 291.389 76.8672 293.546 77.3516C295.718 77.8359 297.475 78.4141 298.819 79.0859C300.163 79.7578 301.155 80.5703 301.796 81.5234C302.452 82.4609 302.78 83.6094 302.78 84.9688C302.78 87.2344 301.874 89.0547 300.061 90.4297C298.249 91.7891 295.897 92.4688 293.007 92.4688C290.975 92.4688 289.178 92.1094 287.616 91.3906C286.053 90.6719 284.827 89.6719 283.936 88.3906C283.061 87.0938 282.624 85.6953 282.624 84.1953H286.96C287.038 85.6484 287.616 86.8047 288.694 87.6641C289.788 88.5078 291.225 88.9297 293.007 88.9297C294.647 88.9297 295.96 88.6016 296.944 87.9453C297.944 87.2734 298.444 86.3828 298.444 85.2734ZM313.351 60.5V66.6406H318.086V69.9922H313.351V85.7188C313.351 86.7344 313.562 87.5 313.984 88.0156C314.406 88.5156 315.125 88.7656 316.14 88.7656C316.64 88.7656 317.328 88.6719 318.203 88.4844V92C317.062 92.3125 315.953 92.4688 314.875 92.4688C312.937 92.4688 311.476 91.8828 310.492 90.7109C309.508 89.5391 309.015 87.875 309.015 85.7188V69.9922H304.398V66.6406H309.015V60.5H313.351ZM326.922 92H322.587V66.6406H326.922V92ZM322.235 59.9141C322.235 59.2109 322.446 58.6172 322.868 58.1328C323.305 57.6484 323.946 57.4062 324.79 57.4062C325.633 57.4062 326.274 57.6484 326.712 58.1328C327.149 58.6172 327.368 59.2109 327.368 59.9141C327.368 60.6172 327.149 61.2031 326.712 61.6719C326.274 62.1406 325.633 62.375 324.79 62.375C323.946 62.375 323.305 62.1406 322.868 61.6719C322.446 61.2031 322.235 60.6172 322.235 59.9141ZM337.025 66.6406L337.166 69.8281C339.103 67.3906 341.634 66.1719 344.759 66.1719C350.119 66.1719 352.822 69.1953 352.869 75.2422V92H348.533V75.2188C348.517 73.3906 348.095 72.0391 347.267 71.1641C346.455 70.2891 345.181 69.8516 343.447 69.8516C342.041 69.8516 340.806 70.2266 339.744 70.9766C338.681 71.7266 337.853 72.7109 337.259 73.9297V92H332.923V66.6406H337.025ZM357.417 79.1094C357.417 75.1562 358.331 72.0156 360.159 69.6875C361.987 67.3438 364.409 66.1719 367.424 66.1719C370.518 66.1719 372.932 67.2656 374.667 69.4531L374.878 66.6406H378.838V91.3906C378.838 94.6719 377.862 97.2578 375.909 99.1484C373.971 101.039 371.362 101.984 368.081 101.984C366.253 101.984 364.463 101.594 362.713 100.812C360.963 100.031 359.628 98.9609 358.706 97.6016L360.956 95C362.815 97.2969 365.088 98.4453 367.776 98.4453C369.885 98.4453 371.526 97.8516 372.698 96.6641C373.885 95.4766 374.479 93.8047 374.479 91.6484V89.4688C372.745 91.4688 370.378 92.4688 367.378 92.4688C364.409 92.4688 362.003 91.2734 360.159 88.8828C358.331 86.4922 357.417 83.2344 357.417 79.1094ZM361.776 79.6016C361.776 82.4609 362.362 84.7109 363.534 86.3516C364.706 87.9766 366.346 88.7891 368.456 88.7891C371.19 88.7891 373.198 87.5469 374.479 85.0625V73.4844C373.151 71.0625 371.159 69.8516 368.503 69.8516C366.393 69.8516 364.745 70.6719 363.557 72.3125C362.37 73.9531 361.776 76.3828 361.776 79.6016ZM401.27 60.5V66.6406H406.004V69.9922H401.27V85.7188C401.27 86.7344 401.481 87.5 401.903 88.0156C402.325 88.5156 403.043 88.7656 404.059 88.7656C404.559 88.7656 405.247 88.6719 406.122 88.4844V92C404.981 92.3125 403.872 92.4688 402.793 92.4688C400.856 92.4688 399.395 91.8828 398.411 90.7109C397.426 89.5391 396.934 87.875 396.934 85.7188V69.9922H392.317V66.6406H396.934V60.5H401.27ZM414.466 69.7109C416.388 67.3516 418.888 66.1719 421.966 66.1719C427.326 66.1719 430.029 69.1953 430.076 75.2422V92H425.74V75.2188C425.724 73.3906 425.302 72.0391 424.474 71.1641C423.662 70.2891 422.388 69.8516 420.654 69.8516C419.247 69.8516 418.013 70.2266 416.951 70.9766C415.888 71.7266 415.06 72.7109 414.466 73.9297V92H410.13V56H414.466V69.7109ZM446.131 92.4688C442.694 92.4688 439.897 91.3438 437.741 89.0938C435.584 86.8281 434.506 83.8047 434.506 80.0234V79.2266C434.506 76.7109 434.983 74.4688 435.936 72.5C436.905 70.5156 438.248 68.9688 439.967 67.8594C441.702 66.7344 443.577 66.1719 445.592 66.1719C448.889 66.1719 451.452 67.2578 453.28 69.4297C455.108 71.6016 456.022 74.7109 456.022 78.7578V80.5625H438.842C438.905 83.0625 439.631 85.0859 441.022 86.6328C442.428 88.1641 444.209 88.9297 446.366 88.9297C447.897 88.9297 449.194 88.6172 450.256 87.9922C451.319 87.3672 452.248 86.5391 453.045 85.5078L455.694 87.5703C453.569 90.8359 450.381 92.4688 446.131 92.4688ZM445.592 69.7344C443.842 69.7344 442.373 70.375 441.186 71.6562C439.998 72.9219 439.264 74.7031 438.983 77H451.686V76.6719C451.561 74.4688 450.967 72.7656 449.905 71.5625C448.842 70.3438 447.405 69.7344 445.592 69.7344ZM483.305 70.5312C482.649 70.4219 481.938 70.3672 481.172 70.3672C478.328 70.3672 476.399 71.5781 475.383 74V92H471.047V66.6406H475.266L475.336 69.5703C476.758 67.3047 478.774 66.1719 481.383 66.1719C482.227 66.1719 482.868 66.2812 483.305 66.5V70.5312ZM491.064 92H486.728V66.6406H491.064V92ZM486.376 59.9141C486.376 59.2109 486.587 58.6172 487.009 58.1328C487.447 57.6484 488.087 57.4062 488.931 57.4062C489.775 57.4062 490.415 57.6484 490.853 58.1328C491.29 58.6172 491.509 59.2109 491.509 59.9141C491.509 60.6172 491.29 61.2031 490.853 61.6719C490.415 62.1406 489.775 62.375 488.931 62.375C488.087 62.375 487.447 62.1406 487.009 61.6719C486.587 61.2031 486.376 60.6172 486.376 59.9141ZM496.033 79.1094C496.033 75.1562 496.948 72.0156 498.776 69.6875C500.604 67.3438 503.026 66.1719 506.041 66.1719C509.135 66.1719 511.549 67.2656 513.283 69.4531L513.494 66.6406H517.455V91.3906C517.455 94.6719 516.479 97.2578 514.526 99.1484C512.588 101.039 509.979 101.984 506.698 101.984C504.869 101.984 503.08 101.594 501.33 100.812C499.58 100.031 498.244 98.9609 497.323 97.6016L499.573 95C501.432 97.2969 503.705 98.4453 506.393 98.4453C508.502 98.4453 510.143 97.8516 511.315 96.6641C512.502 95.4766 513.096 93.8047 513.096 91.6484V89.4688C511.362 91.4688 508.994 92.4688 505.994 92.4688C503.026 92.4688 500.619 91.2734 498.776 88.8828C496.948 86.4922 496.033 83.2344 496.033 79.1094ZM500.393 79.6016C500.393 82.4609 500.979 84.7109 502.151 86.3516C503.323 87.9766 504.963 88.7891 507.073 88.7891C509.807 88.7891 511.815 87.5469 513.096 85.0625V73.4844C511.768 71.0625 509.776 69.8516 507.119 69.8516C505.01 69.8516 503.362 70.6719 502.174 72.3125C500.987 73.9531 500.393 76.3828 500.393 79.6016ZM527.394 69.7109C529.316 67.3516 531.816 66.1719 534.894 66.1719C540.253 66.1719 542.956 69.1953 543.003 75.2422V92H538.667V75.2188C538.652 73.3906 538.23 72.0391 537.402 71.1641C536.589 70.2891 535.316 69.8516 533.581 69.8516C532.175 69.8516 530.941 70.2266 529.878 70.9766C528.816 71.7266 527.987 72.7109 527.394 73.9297V92H523.058V56H527.394V69.7109ZM554.418 60.5V66.6406H559.153V69.9922H554.418V85.7188C554.418 86.7344 554.629 87.5 555.051 88.0156C555.473 88.5156 556.192 88.7656 557.207 88.7656C557.707 88.7656 558.395 88.6719 559.27 88.4844V92C558.129 92.3125 557.02 92.4688 555.942 92.4688C554.004 92.4688 552.543 91.8828 551.559 90.7109C550.574 89.5391 550.082 87.875 550.082 85.7188V69.9922H545.465V66.6406H550.082V60.5H554.418ZM586.482 70.5312C585.826 70.4219 585.115 70.3672 584.35 70.3672C581.506 70.3672 579.576 71.5781 578.561 74V92H574.225V66.6406H578.443L578.514 69.5703C579.936 67.3047 581.951 66.1719 584.561 66.1719C585.404 66.1719 586.045 66.2812 586.482 66.5V70.5312ZM599.585 92.4688C596.148 92.4688 593.351 91.3438 591.194 89.0938C589.038 86.8281 587.96 83.8047 587.96 80.0234V79.2266C587.96 76.7109 588.437 74.4688 589.39 72.5C590.358 70.5156 591.702 68.9688 593.421 67.8594C595.155 66.7344 597.03 66.1719 599.046 66.1719C602.343 66.1719 604.905 67.2578 606.733 69.4297C608.562 71.6016 609.476 74.7109 609.476 78.7578V80.5625H592.296C592.358 83.0625 593.085 85.0859 594.476 86.6328C595.882 88.1641 597.663 88.9297 599.819 88.9297C601.351 88.9297 602.648 88.6172 603.71 87.9922C604.773 87.3672 605.702 86.5391 606.499 85.5078L609.148 87.5703C607.023 90.8359 603.835 92.4688 599.585 92.4688ZM599.046 69.7344C597.296 69.7344 595.827 70.375 594.64 71.6562C593.452 72.9219 592.718 74.7031 592.437 77H605.14V76.6719C605.015 74.4688 604.421 72.7656 603.358 71.5625C602.296 70.3438 600.858 69.7344 599.046 69.7344ZM628.32 85.2734C628.32 84.1016 627.875 83.1953 626.984 82.5547C626.109 81.8984 624.57 81.3359 622.367 80.8672C620.18 80.3984 618.438 79.8359 617.141 79.1797C615.859 78.5234 614.906 77.7422 614.281 76.8359C613.672 75.9297 613.367 74.8516 613.367 73.6016C613.367 71.5234 614.242 69.7656 615.992 68.3281C617.758 66.8906 620.008 66.1719 622.742 66.1719C625.617 66.1719 627.945 66.9141 629.727 68.3984C631.523 69.8828 632.422 71.7812 632.422 74.0938H628.062C628.062 72.9062 627.555 71.8828 626.539 71.0234C625.539 70.1641 624.273 69.7344 622.742 69.7344C621.164 69.7344 619.93 70.0781 619.039 70.7656C618.148 71.4531 617.703 72.3516 617.703 73.4609C617.703 74.5078 618.117 75.2969 618.945 75.8281C619.773 76.3594 621.266 76.8672 623.422 77.3516C625.594 77.8359 627.352 78.4141 628.695 79.0859C630.039 79.7578 631.031 80.5703 631.672 81.5234C632.328 82.4609 632.656 83.6094 632.656 84.9688C632.656 87.2344 631.75 89.0547 629.938 90.4297C628.125 91.7891 625.773 92.4688 622.883 92.4688C620.852 92.4688 619.055 92.1094 617.492 91.3906C615.93 90.6719 614.703 89.6719 613.812 88.3906C612.938 87.0938 612.5 85.6953 612.5 84.1953H616.836C616.914 85.6484 617.492 86.8047 618.57 87.6641C619.664 88.5078 621.102 88.9297 622.883 88.9297C624.523 88.9297 625.836 88.6016 626.82 87.9453C627.82 87.2734 628.32 86.3828 628.32 85.2734ZM636.196 79.0859C636.196 76.6016 636.681 74.3672 637.649 72.3828C638.634 70.3984 639.993 68.8672 641.728 67.7891C643.478 66.7109 645.47 66.1719 647.704 66.1719C651.157 66.1719 653.946 67.3672 656.071 69.7578C658.212 72.1484 659.282 75.3281 659.282 79.2969V79.6016C659.282 82.0703 658.806 84.2891 657.853 86.2578C656.915 88.2109 655.563 89.7344 653.798 90.8281C652.048 91.9219 650.032 92.4688 647.751 92.4688C644.313 92.4688 641.524 91.2734 639.384 88.8828C637.259 86.4922 636.196 83.3281 636.196 79.3906V79.0859ZM640.556 79.6016C640.556 82.4141 641.204 84.6719 642.501 86.375C643.813 88.0781 645.563 88.9297 647.751 88.9297C649.954 88.9297 651.704 88.0703 653.001 86.3516C654.298 84.6172 654.946 82.1953 654.946 79.0859C654.946 76.3047 654.282 74.0547 652.954 72.3359C651.642 70.6016 649.892 69.7344 647.704 69.7344C645.563 69.7344 643.837 70.5859 642.524 72.2891C641.212 73.9922 640.556 76.4297 640.556 79.6016ZM679.416 89.4922C677.728 91.4766 675.252 92.4688 671.986 92.4688C669.283 92.4688 667.221 91.6875 665.799 90.125C664.393 88.5469 663.682 86.2188 663.666 83.1406V66.6406H668.002V83.0234C668.002 86.8672 669.564 88.7891 672.689 88.7891C676.002 88.7891 678.205 87.5547 679.299 85.0859V66.6406H683.635V92H679.51L679.416 89.4922ZM701.542 70.5312C700.886 70.4219 700.175 70.3672 699.409 70.3672C696.565 70.3672 694.636 71.5781 693.62 74V92H689.284V66.6406H693.503L693.573 69.5703C694.995 67.3047 697.011 66.1719 699.62 66.1719C700.464 66.1719 701.104 66.2812 701.542 66.5V70.5312ZM714.293 88.9297C715.84 88.9297 717.191 88.4609 718.348 87.5234C719.504 86.5859 720.144 85.4141 720.269 84.0078H724.371C724.293 85.4609 723.793 86.8438 722.871 88.1562C721.949 89.4688 720.715 90.5156 719.168 91.2969C717.637 92.0781 716.012 92.4688 714.293 92.4688C710.84 92.4688 708.09 91.3203 706.043 89.0234C704.012 86.7109 702.996 83.5547 702.996 79.5547V78.8281C702.996 76.3594 703.449 74.1641 704.355 72.2422C705.262 70.3203 706.558 68.8281 708.246 67.7656C709.949 66.7031 711.957 66.1719 714.269 66.1719C717.113 66.1719 719.473 67.0234 721.348 68.7266C723.238 70.4297 724.246 72.6406 724.371 75.3594H720.269C720.144 73.7188 719.519 72.375 718.394 71.3281C717.285 70.2656 715.91 69.7344 714.269 69.7344C712.066 69.7344 710.355 70.5312 709.137 72.125C707.933 73.7031 707.332 75.9922 707.332 78.9922V79.8125C707.332 82.7344 707.933 84.9844 709.137 86.5625C710.34 88.1406 712.058 88.9297 714.293 88.9297ZM738.809 92.4688C735.372 92.4688 732.575 91.3438 730.419 89.0938C728.262 86.8281 727.184 83.8047 727.184 80.0234V79.2266C727.184 76.7109 727.661 74.4688 728.614 72.5C729.583 70.5156 730.927 68.9688 732.645 67.8594C734.38 66.7344 736.255 66.1719 738.27 66.1719C741.567 66.1719 744.13 67.2578 745.958 69.4297C747.786 71.6016 748.7 74.7109 748.7 78.7578V80.5625H731.52C731.583 83.0625 732.309 85.0859 733.7 86.6328C735.106 88.1641 736.887 88.9297 739.044 88.9297C740.575 88.9297 741.872 88.6172 742.934 87.9922C743.997 87.3672 744.927 86.5391 745.723 85.5078L748.372 87.5703C746.247 90.8359 743.059 92.4688 738.809 92.4688ZM738.27 69.7344C736.52 69.7344 735.052 70.375 733.864 71.6562C732.677 72.9219 731.942 74.7031 731.661 77H744.364V76.6719C744.239 74.4688 743.645 72.7656 742.583 71.5625C741.52 70.3438 740.083 69.7344 738.27 69.7344ZM757.865 82.3906C757.896 80.5312 758.107 79.0625 758.498 77.9844C758.888 76.9062 759.685 75.7109 760.888 74.3984L763.959 71.2344C765.271 69.75 765.927 68.1562 765.927 66.4531C765.927 64.8125 765.498 63.5312 764.638 62.6094C763.779 61.6719 762.529 61.2031 760.888 61.2031C759.295 61.2031 758.013 61.625 757.045 62.4688C756.076 63.3125 755.592 64.4453 755.592 65.8672H751.256C751.287 63.3359 752.185 61.2969 753.951 59.75C755.732 58.1875 758.045 57.4062 760.888 57.4062C763.842 57.4062 766.138 58.2031 767.779 59.7969C769.435 61.375 770.263 63.5469 770.263 66.3125C770.263 69.0469 768.998 71.7422 766.467 74.3984L763.912 76.9297C762.771 78.1953 762.201 80.0156 762.201 82.3906H757.865ZM757.677 89.8203C757.677 89.1172 757.888 88.5312 758.31 88.0625C758.748 87.5781 759.388 87.3359 760.232 87.3359C761.076 87.3359 761.717 87.5781 762.154 88.0625C762.592 88.5312 762.81 89.1172 762.81 89.8203C762.81 90.5234 762.592 91.1094 762.154 91.5781C761.717 92.0312 761.076 92.2578 760.232 92.2578C759.388 92.2578 758.748 92.0312 758.31 91.5781C757.888 91.1094 757.677 90.5234 757.677 89.8203Z" fill="#24292E"/>
</g>
<defs>
<filter id="filter0_b" x="-17.5291" y="-18" width="805.792" height="138.242" filterUnits="userSpaceOnUse" color-interpolation-filters="sRGB">
<feFlood flood-opacity="0" result="BackgroundImageFix"/>
<feGaussianBlur in="BackgroundImage" stdDeviation="9"/>
<feComposite in2="SourceAlpha" operator="in" result="effect1_backgroundBlur"/>
<feBlend mode="normal" in="SourceGraphic" in2="effect1_backgroundBlur" result="shape"/>
</filter>
</defs>
</svg>
